<svg xmlns="http://www.w3.org/2000/svg" xmlns:xlink="http://www.w3.org/1999/xlink" width="500" height="500" version="1.2" viewBox="0 0 375 375"><defs><clipPath id="clip1"><path d="M 133 58.6875 L 242 58.6875 L 242 184 L 133 184 Z M 133 58.6875"/></clipPath><clipPath id="clip2"><path d="M 37.5 115 L 337.5 115 L 337.5 316.6875 L 37.5 316.6875 Z M 37.5 115"/></clipPath></defs><g id="surface1"><g clip-path="url(#clip1)" clip-rule="nonzero"><path fill="current" d="M 156.820312 183.175781 L 217.710938 183.175781 C 219.117188 183.175781 220.289062 181.769531 220.289062 180.59375 L 220.289062 126.804688 L 239.023438 126.804688 C 240.429688 126.804688 241.367188 125.628906 241.367188 124.457031 C 241.367188 123.75 241.132812 123.046875 240.664062 122.578125 L 189.375 59.628906 C 188.90625 58.921875 188.203125 58.6875 187.5 58.6875 C 186.796875 58.6875 186.09375 58.921875 185.625 59.628906 L 134.101562 123.046875 C 133.632812 123.75 133.398438 124.691406 133.867188 125.628906 C 134.335938 126.335938 135.039062 127.039062 135.976562 127.039062 L 154.710938 127.039062 L 154.710938 180.828125 C 154.710938 181.769531 155.648438 183.175781 156.820312 183.175781 Z M 156.820312 183.175781" class="vector__bg" style="stroke:none;fill-rule:nonzero;fill-opacity:1"/></g><g clip-path="url(#clip2)" clip-rule="nonzero"><path fill="current" d="M 325.679688 115.058594 L 252.609375 115.058594 C 254.484375 117.410156 255.652344 120.933594 255.652344 124.457031 C 255.652344 129.152344 253.78125 133.851562 250.5 136.199219 L 316.3125 136.199219 L 316.3125 238.140625 L 273.6875 195.390625 C 272.75 194.453125 271.34375 194.453125 270.410156 195.390625 L 226.144531 240.019531 L 183.285156 197.269531 L 156.820312 197.269531 C 149.792969 197.269531 143.703125 192.574219 141.363281 186.230469 L 112.554688 215.121094 L 93.117188 195.390625 C 92.179688 194.453125 90.773438 194.453125 89.835938 195.390625 L 58.6875 226.632812 L 58.6875 136.199219 L 124.5 136.199219 C 123.09375 133.851562 121.921875 133.382812 120.984375 131.503906 C 118.410156 126.101562 119.113281 119.757812 122.390625 115.058594 L 49.320312 115.058594 C 42.761719 115.058594 37.609375 120.226562 37.609375 126.804688 L 37.609375 305.320312 C 37.609375 311.894531 42.996094 317.0625 49.320312 317.0625 L 325.679688 317.0625 C 332.238281 317.0625 337.390625 311.894531 337.390625 305.320312 L 337.390625 126.804688 C 337.390625 120.226562 332.003906 115.058594 325.679688 115.058594 Z M 325.679688 115.058594" class="vector__bg" style="stroke:none;fill-rule:nonzero;fill-opacity:1"/></g></g></svg>